<?xml version="1.0" encoding="utf-8"?>
<!-- Generator: Adobe Illustrator 28.7.10, SVG Export Plug-In . SVG Version: 9.03 Build 57640)  -->
<svg version="1.0" id="圖層_1" xmlns="http://www.w3.org/2000/svg" xmlns:xlink="http://www.w3.org/1999/xlink" x="0px" y="0px"
	 viewBox="0 0 595.3 279.4" style="enable-background:new 0 0 595.3 279.4;" xml:space="preserve">
<style type="text/css">
	.st0{fill:none;stroke:#16713E;stroke-width:0.25;stroke-miterlimit:10;}
</style>
<g>
	<path class="st0" d="M87.1,115.1l-2.5,8.3c-7,0.3-13.7,0.5-20,0.5c-18,0-29.9-0.8-35.8-2.4c-5.9-1.6-11.4-4.5-16.3-8.7
		c-3.1,4.7-6.2,8.9-9.5,12.6l-7.2-5.6c9-10.2,14.7-20.1,17-29.6H-2.2v-8.6C3.4,76,7.8,70.2,11.1,64.2H-3.5v-8.6H21v8.6
		c-2.9,6.2-6.9,12-12,17.5h13v8.5c-1.3,5.3-3.2,10.5-5.6,15.5c2.6,2.8,6,5,10.3,6.6c4.3,1.7,9.8,2.6,16.4,2.8
		c6.6,0.2,13.6,0.3,21,0.3C72.1,115.5,79.7,115.3,87.1,115.1z M21.5,47.2l-6.4,6.2C10.3,48.4,4.9,44-1.2,40.2l6.6-6.4
		C12.1,38.1,17.5,42.5,21.5,47.2z M86,104.7H59.6v7.8h-8.8v-7.8h-27v-7.3h27v-4.9H28.5V62.7h22.3V58H38.1v-7h12.7v-4.1h8.8V51h12.9
		v7H59.6v4.7h21.8v29.9H59.6v4.9H86V104.7z M84.3,54h-8.8v-9.5H35.2V54H26V36.6h58.2V54z M50.8,74.5v-4.9H37.2v4.9H50.8z M50.8,85.7
		v-4.9H37.2v4.9H50.8z M72.8,74.5v-4.9H59.6v4.9H72.8z M72.8,85.7v-4.9H59.6v4.9H72.8z"/>
	<path class="st0" d="M148.9,58.8h-19.8v5.8h17.7v30.1h-17.7v5.8h17.7v7.2h-17.7v6.5c6.5-0.6,12.6-1.5,18.2-2.6l0.4,7.3
		c-14.8,2.5-30.4,4.5-47,6.2l-1.9-7.4l22-2.3v-7.7h-17.9v-7.2h17.9v-5.8h-17.9V64.6h17.9v-5.8h-20.6v-7.5h20.6v-5.9
		c-4.4,0.6-9.8,1-16.1,1.4l-2.3-7.2c15.6-0.7,29.5-2.3,41.7-4.9l3.5,6.6c-4.9,1.1-11.1,2.2-18.7,3.2v6.8h19.8V58.8z M120.9,76.4
		v-5.3h-9.6v5.3H120.9z M120.9,88v-5.2h-9.6V88H120.9z M138.4,76.5v-5.4h-9.4v5.4H138.4z M138.4,88v-5.2h-9.4V88H138.4z M186.8,54.3
		c-0.1,14.3-0.4,28-1,41.3c-0.6,13.2-1.2,20.9-1.8,23c-0.6,2.1-1.8,3.7-3.5,4.8c-1.7,1.1-4.5,1.7-8.3,1.7c-1.8,0-3.6-0.1-5.5-0.3
		l-2.6-8.7c2.6,0.2,4.7,0.3,6.2,0.3c3,0,4.7-0.4,5.2-1.1s1.1-6.9,1.8-18.3s0.9-22.8,0.7-34.1h-8.8c-0.2,24.9-4.7,45.7-13.7,62.4
		l-7.9-3.9c9.1-16.4,13.3-35.9,12.7-58.5h-8.9v-8.5h9.1c0.2-8.4,0.2-14.6,0.1-18.7h8.9c0,6.4-0.1,12.7-0.3,18.7H186.8z"/>
	<path class="st0" d="M228.6,60h-8.9v14.7c1-0.4,3-1.6,5.9-3.6l0.7,9.5c-1.5,1.2-3.7,2.7-6.6,4.4l0,31.7c0,3.4-1.1,5.6-3.2,6.6
		c-2.1,1-5.9,1.5-11.3,1.5l-2.9-8.9c4.5-0.3,7.1-0.6,7.7-0.8c0.6-0.2,1-0.7,1-1.6l0-23.8c-3.1,1.6-5.9,2.9-8.5,3.9l-2.2-8.8
		c4-1.7,7.6-3.3,10.7-5V60h-9.5v-8.5h9.5V35.1h8.6v16.4h8.9V60z M257.3,85.3h-2.1v39.3h-7.7v-8.2c-7.3,1.6-14.2,2.9-20.5,3.8
		l-1.9-6.9c2.6-0.2,4.7-0.4,6.4-0.7V85.3h-2.9v-6.8h28.6V85.3z M289.9,72.9h-9.3V76h-8.9v-3.1h-41.9v-6.7h7v-23h-6.2v-6.9h56.9v6.9
		h-7v23h9.3V72.9z M247.6,89.3v-4h-8.3v4H247.6z M247.6,99.8v-4.3h-8.3v4.3H247.6z M247.6,109.5V106h-8.3v5.3
		C242,110.9,244.8,110.3,247.6,109.5z M271.7,47.2v-3.9h-25.9v3.9H271.7z M271.7,56.7V53h-25.9v3.7H271.7z M271.7,66.3v-4h-25.9v4
		H271.7z M290.9,117.4h-4.8v7.3h-7.7v-7.3h-20.5v-7.1h4.8v-25h-2.1v-6.8h29.2v6.8h-3.8v25h4.8V117.4z M278.3,89.3v-4h-7.9v4H278.3z
		 M278.3,99.6v-4h-7.9v4H278.3z M278.3,110.4v-4.6h-7.9v4.6H278.3z"/>
	<path class="st0" d="M323.5,106.4c-2.6,4.4-7.2,9.3-14,14.7l-6.2-5.8c6.4-5.1,11-9.5,13.7-13.2L323.5,106.4z M360.8,76.4h-56.6
		v-7.5h23.9c-0.3-1.2-1-2.8-2.2-4.9h-16.5V35.9h46.1V64h-19.5l2.1,4.9h22.7V76.4z M354.5,100h-17.4v16.1c0,2.7-0.6,4.7-1.7,6
		c-1.1,1.3-2.4,2.1-3.9,2.4c-1.5,0.3-4.5,0.4-9.2,0.4l-2.2-8.3c1.5,0.1,2.7,0.1,3.6,0.1c1.9,0,3.1-0.2,3.6-0.5
		c0.5-0.3,0.8-0.9,0.8-1.7V100h-17.5V80.9h43.9V100z M346.5,47.3v-4.5h-28.1v4.5H346.5z M346.6,57.6v-4.2h-28.2v4.2H346.6z
		 M345.8,93.1v-5.4h-26.4v5.4H345.8z M356.2,113.2l-7.3,3.9c-1.5-2.8-4.1-6.6-7.8-11.4l7.3-3.9C351.5,105.4,354.1,109.2,356.2,113.2
		z M393.8,92.5c-7.3,13.3-18.4,24.3-33.5,32.8l-6.9-6.7c14.2-7.8,25.1-18.2,32.5-31.1L393.8,92.5z M393.4,64.2
		c-7.3,10.9-17,20.4-29.1,28.4l-6.8-6.9c10.7-6.2,20.1-15.1,28-26.6L393.4,64.2z M391.9,38.9c-7.1,9.8-16.1,18.2-26.8,25.2l-6.4-6.7
		c9.3-5.8,17.8-13.7,25.3-23.7L391.9,38.9z"/>
	<path class="st0" d="M495.7,92.9h-39.9v32h-9.3v-32h-40v-9.1h40V47.1h-37.3v-9h84.4v9h-37.7v36.8h39.9V92.9z M435.8,76l-8.7,4
		c-3-7.5-7.4-15.5-13.2-24.1l8.6-4.3C427.6,58.9,432,67.1,435.8,76z M489.3,56c-4.4,9.7-9.3,17.8-14.6,24.3l-8.4-4.2
		c4.8-5.8,9.7-13.9,14.6-24.3L489.3,56z"/>
	<path class="st0" d="M599.5,72.3l-7.9,6.4c-1.9-3.1-4.1-6.1-6.4-9c-26.4,3.1-50.8,5-73.3,5.6l-2.2-8.6c9.8-3.2,20.5-14,31.9-32.4
		l10.4,2.1c-6.8,11-14.9,20.8-24.3,29.4c13.4-0.5,30.3-1.8,50.7-4c-4.2-4.7-9.4-9.5-15.4-14.4l7.9-6.1
		C583.2,51.9,592.7,62.3,599.5,72.3z M590.4,124.6h-9.3V120h-53.9v4.6h-9.4V82.2h72.6V124.6z M581.1,111.1v-20h-53.9v20H581.1z"/>
	<path class="st0" d="M42.4,180.6h-8.2v3c0,1.2,0.8,1.8,2.4,1.8h5.9v7.6h-9.5c-4.6,0-6.9-2.5-6.9-7.4v-4.9h-8.3
		c-1.6,6.6-7.5,11.8-17.8,15.7l-4-7c6.6-2,10.8-4.9,12.6-8.7H-2.5v-7.7H16v-4.8H0v-7.6h16v-5.9h8.7v5.9h15.2v7.6H24.7v4.8h17.7
		V180.6z M15.5,225.7c-2.8,7.5-6.4,13.8-10.8,18.9l-7.9-4.5c4.4-5.3,7.9-11.2,10.6-17.6L15.5,225.7z M41.8,214.8
		c-13.9,2.9-28.3,5.3-43.1,7.2l-1.8-7.9c7.8-0.7,14.2-1.6,19.1-2.5v-6.8H1.3v-7.7H16v-8.1h8.7v8.1h14.4v7.7H24.7v5.3l17.1-3V214.8z
		 M37.6,242.6l-9,1.6c-0.5-5.7-2.1-12.3-4.6-19.8l8.7-2.1C35.1,229.3,36.7,236,37.6,242.6z M87.8,200.8c-0.8,7.6-1.9,12.7-3.3,15.4
		c-1.4,2.7-3.4,4.1-6.1,4.1c-2.8,0-4.9-1.6-6.4-4.8c-1.5-3.2-2.4-8-2.6-14.4s-0.3-14.8-0.3-25h-6.2c-0.2,6.7-0.8,13.3-1.9,19.7
		c2.6,3.5,5,7.2,7,11.1l-6.6,5.2c-1.1-2.3-2.3-4.3-3.5-6.2c-2.5,6.1-5.4,11.4-8.7,15.8l-7.8-4.5c4.7-6.4,8.2-13.1,10.4-20.2
		c-2.6-3.4-5.3-6.6-8.2-9.6l6.5-5.3c1.3,1.1,2.5,2.5,3.8,4.3c0.7-3.2,0.9-6.6,0.7-10.3h-8.9v-8.3h9c0.2-5.7,0.2-10.1,0.2-13.3h8.3
		c0,3.4-0.1,7.9-0.2,13.3h14.8c-0.2,9.4-0.3,17.2-0.3,23.3c0,6.9,0.1,11.4,0.4,13.6c0.3,2.2,0.4,3.5,0.5,4c0.1,0.5,0.3,0.8,0.7,0.8
		c0.1,0,0.2,0,0.4-0.1c0.1-0.1,0.4-1.5,0.9-4.4c0.4-2.9,0.7-5.6,0.9-8.2L87.8,200.8z M61.8,242l-8.6,2.3c-2.1-7.1-4.7-13.5-7.9-19.4
		l8.6-2.7C57.4,228.7,60,235.3,61.8,242z M86.1,241.7l-8.5,3.3c-2.7-7-6.4-13.6-10.9-19.9l8.4-3.8C79.9,228.8,83.5,235.6,86.1,241.7
		z"/>
	<path class="st0" d="M139.4,198.9h-28.1v45.4H102v-87.4h37.4V198.9z M130.4,173.4v-8.2h-19.1v8.2H130.4z M130.4,190.3v-9h-19.1v9
		H130.4z M185.2,236.2c0,2.7-1,4.7-3.1,6c-2.1,1.3-7.9,2-17.3,2l-3.1-9.1c6.7,0.1,10.8,0.1,12.2-0.1c1.4-0.2,2.1-0.9,2.1-2.1v-34
		h-28.4v-42h37.5V236.2z M176,173.4v-8.2h-19.2v8.2H176z M176,190.3v-9h-19.2v9H176z"/>
	<path class="st0" d="M291.8,205.7l-3.2,7.5c-3.2-0.9-7.8-2.7-13.7-5.5v25.4h-40.1l3.4,4.7c-10.2,3.8-21,6.3-32.2,7.7l-3.9-7.3
		c9.2-0.8,18-2.6,26.5-5.2h-10v-24.2c-5,2.3-9.5,4-13.3,5.1l-4-7.6c9.5-2.3,17.2-5.9,23.1-10.7h-20.9v-6.4h25.4v-3.9h-11.5v-5.1
		h11.5v-3.7H216V171h12.8v-4.2h-15.4v9.4h-8.9v-16.7H241c-0.2-0.7-0.8-1.7-1.7-3.2l8.7-2.4c1.2,1.8,2.2,3.7,3.1,5.6h37.5v16.5h-8.9
		v-9.1h-16.1v4.2h13.1v5.9h-13.1v3.7h12.2v5.1h-12.2v3.9h27v6.4h-20C276.6,200.1,283.7,203.3,291.8,205.7z M265.9,209.3v-3.3h-38.3
		v3.3H265.9z M265.9,218.1v-3.6h-38.3v3.6H265.9z M265.9,227.2v-4h-38.3v4H265.9z M261.8,199.7l-4.1-3.8H236c-1,1.2-2.3,2.4-3.8,3.8
		H261.8z M254.7,171v-4.2h-16.7v4.2H254.7z M254.8,180.6v-3.7h-16.8v3.7H254.8z M254.8,189.6v-3.9h-16.8v3.9H254.8z M290.4,238.3
		l-3.4,6.6c-11.7-2.1-22.2-3.2-31.2-3.4l3.4-6.8C269.6,235.1,280,236.3,290.4,238.3z"/>
	<path class="st0" d="M393.7,217.1h-7.2v13h-33v6.4c0,2-0.6,3.7-1.9,5.1c-1.3,1.4-2.8,2.2-4.5,2.5c-1.7,0.3-6.8,0.4-15.3,0.4
		l-2.8-7.8l13.7-0.3c0.4,0,0.8-0.2,1.2-0.6c0.4-0.4,0.6-0.8,0.6-1.2v-4.4h-33.7v-6.9h33.7v-6.2h-40v-6.9h40v-5.6h-33.7v-6.9h33.7
		v-5.5h-32v-19.2h32v-5.6h-39.1v-7.1h39.1v-5.8h9v5.8h39v7.1h-39v5.6h32.1v19.2h-32.1v5.5h33v12.5h7.2V217.1z M344.5,185.6v-6h-22.8
		v6H344.5z M376.3,185.6v-6h-22.8v6H376.3z M377.5,210.2v-5.6h-24v5.6H377.5z M377.5,223.2v-6.2h-24v6.2H377.5z"/>
	<path class="st0" d="M448.5,202.6l-6.3,7.7c-2.8-5.8-5.5-10.6-8.3-14.3v48.2h-8.9V199c-3.5,7.5-8.3,14.5-14.2,21l-4.5-9.9
		c6.7-6.6,12.8-16,18.1-28.2h-16.7v-8.7h17.3v-18.3h8.9v18.3h14.3v8.7H434v1.2C440.4,190.4,445.2,196.9,448.5,202.6z M493.9,244.3
		h-9v-7.5h-24.2v7.4h-9.2v-87.1h42.3V244.3z M484.8,180.6v-14.7h-24.2v14.7H484.8z M484.8,204.1V189h-24.2v15.2H484.8z M484.8,228.2
		v-15.6h-24.2v15.6H484.8z"/>
	<path class="st0" d="M552.6,166.9h-27.7c-3.2,3.8-6.9,7.2-11.1,10.2l-5.7-7c6-4,11.1-9.4,15.4-16.1l9.4,2.1c-0.5,1-1.3,2.1-2.3,3.4
		h22V166.9z M529,221c-3.7,9.2-8.2,17.2-13.5,23.9l-7-6.3c4.9-6.5,9.1-13.8,12.6-22L529,221z M530.2,205.5l-6.1,6.8
		c-5.5-4.4-10.7-7.6-15.5-9.6l5.8-7.1C519.9,198,525.2,201.3,530.2,205.5z M531.6,189.7l-6.3,6.6c-4.4-4.3-9.3-8-14.5-10.9l6.6-6.7
		C521.8,181.2,526.6,184.9,531.6,189.7z M541.9,174.1l-9.7,1.9c-1.2-2.2-2.6-4.2-4.3-6l9.8-2C539.4,170,540.8,172,541.9,174.1z
		 M598.6,228.9h-9.1v7.2c0,2.6-0.7,4.6-2,5.9c-1.3,1.3-3.8,2-7.3,2.2c-3.6,0.2-7,0.2-10.3,0.2l-2.8-7.2l11.5-0.1c1.3,0,2-0.7,2-2.1
		v-6.2h-50.4v-6.6h50.4v-1.7h9v1.7h9.1V228.9z M598.3,185.6H569v3h25.1V211c0,2.1-0.6,3.9-1.9,5.4c-1.3,1.4-3.9,2.2-8,2.2
		c-1.5,0-3.2-0.1-4.9-0.3l-2.7-4.6c4.1,0.2,6.5,0.2,7.4-0.1c0.8-0.3,1.3-0.8,1.3-1.5v-1.3H569v6.7h-8.9v-6.7h-15.9v7.9h-9.2v-30h25
		v-3h-28.6v-6.1h28.6v-4.2h8.9v4.2h29.3V185.6z M561.2,237.3l-8.9,4.1c-3.5-3.1-6.8-5.6-9.8-7.4l8.9-4.3
		C554.3,231.3,557.5,233.8,561.2,237.3z M560.1,197.1v-3.1h-15.9v3.1H560.1z M560.1,205.5v-3.3h-15.9v3.3H560.1z M598.6,166.9h-33.5
		c-2.2,3-4.7,5.7-7.5,8.1l-8.1-4.5c5.9-4.8,10.1-10.5,12.6-17l9.3,1.7c-0.4,1.3-1.1,2.7-2.1,4.3h29.2V166.9z M581.7,174.6l-8.7,2.5
		c-1.2-2.5-2.6-4.9-4.3-7l8.6-2.2C579.3,170,580.7,172.2,581.7,174.6z M585.3,197.1v-3.1H569v3.1H585.3z M585.3,205.5v-3.3H569v3.3
		H585.3z M596.3,175.5l-8,3c-1.3-2-2.9-3.9-4.8-5.7l7.9-3.2C593.8,171.6,595.4,173.5,596.3,175.5z"/>
</g>
</svg>
